<svg width="54" height="54" viewBox="0 0 54 54" fill="none" xmlns="http://www.w3.org/2000/svg">
<path d="M39.5 2H48.875C49.7038 2 50.4987 2.32924 51.0847 2.91529C51.6708 3.50134 52 4.2962 52 5.125V48.875C52 49.7038 51.6708 50.4987 51.0847 51.0847C50.4987 51.6708 49.7038 52 48.875 52H39.5V2ZM39.5 2L27 14.5L14.5 2M14.5 2V52H5.125C4.2962 52 3.50134 51.6708 2.91529 51.0847C2.32924 50.4987 2 49.7038 2 48.875V5.125C2 4.2962 2.32924 3.50134 2.91529 2.91529C3.50134 2.32924 4.2962 2 5.125 2H14.5Z" stroke="#FF9900" stroke-width="3" stroke-linecap="round" stroke-linejoin="round"/>
<path d="M2 9.8125L27 33.25L52 9.8125" stroke="#FF9900" stroke-width="3" stroke-linecap="round" stroke-linejoin="round"/>
</svg>
