<svg width="60" height="61" viewBox="0 0 60 61" fill="none" xmlns="http://www.w3.org/2000/svg">
<circle cx="30" cy="33" r="28" fill="#FF9900"/>
<circle cx="30" cy="31" r="20" fill="white"/>
<path d="M30 6C16.746 6 6 16.746 6 30C6 43.254 16.746 54 30 54C43.254 54 54 43.254 54 30C54 16.746 43.254 6 30 6ZM38.362 22H34.904C32.752 22 32 23.136 32 25.436V28H38.308L37.452 34H32V49.9C31.342 49.964 30.676 50 30 50C28.63 50 27.292 49.86 26 49.598V34H20V28H26V24.778C26 18.678 28.972 16 34.042 16C36.47 16 37.754 16.18 38.362 16.262V22Z" fill="#FF9900"/>
</svg>
